# xmcd
#
# Track frame offsets:
#	150
#	12320
#	26173
#	39725
#	56938
#	74232
#	96578
#	111388
#	121901
#	135214
#	146833
#	159815
#	177329
#	195107
#	214200
#	228386
#	240089
#	253209
#	265013
#	283274
#
# Disc length: 3976 seconds
#
# Revision: 861097526
# Processed by: cddbd v1.5.2PL0 Copyright (c) Steve Scherf et al.
# Submitted via: EZCDAudioConverter 9.1.1.1
#
DISCID=2c0f8614
DTITLE=100 Hits - 100 Hits - Country - CD 3
DYEAR=2007
DGENRE=Country
TTITLE0=Elvis Presley - I Love You Because
TTITLE1=John Hartford - Gentle On My Mind
TTITLE2=John Denver - Annie's Song
TTITLE3=Gram Parsons - Hearts On Fire
TTITLE4=The Medicine Show - Sylvia's Mother
TTITLE5=Guy Clark - L.A. Freeway
TTITLE6=George Jones - He Stopped Loving Her Today
TTITLE7=Jim Reeves - He'll Have To Go
TTITLE8=Charlie Rich - Behind Closed Doors
TTITLE9=Peter Wagoner - The Last Thing On My Mind
TTITLE10=Don Williams - True Love
TTITLE11=Linda Ronstadt - Blue Bayou
TTITLE12=Randy Travis - It's Just A Matter Of Time
TTITLE13=Lonestar - I'm Already There
TTITLE14=Mandy Barnett - Three Days
TTITLE15=Glen Campbell - I Love How You Love Me
TTITLE16=Crystal Gayle - Talking In Your Sleep
TTITLE17=Martina McBride - My Baby Loves Me
TTITLE18=John Michael Montgomery - I Love The Way You Love Me
TTITLE19=Mary Chapin Carpenter - Passionate Kisses
EXTD=
EXTT0=
EXTT1=
EXTT2=
EXTT3=
EXTT4=
EXTT5=
EXTT6=
EXTT7=
EXTT8=
EXTT9=
EXTT10=
EXTT11=
EXTT12=
EXTT13=
EXTT14=
EXTT15=
EXTT16=
EXTT17=
EXTT18=
EXTT19=
PLAYORDER=
